<svg width="1052" height="318" viewBox="0 0 1052 318" fill="none" xmlns="http://www.w3.org/2000/svg">
<path d="M635.119 292.76C865.356 292.76 1052 286.12 1052 277.93C1052 269.74 865.356 263.1 635.119 263.1C404.882 263.1 218.238 269.74 218.238 277.93C218.238 286.12 404.882 292.76 635.119 292.76Z" fill="#CFCFE5"/>
<path d="M564.047 169.661C564.047 291.442 495.878 280.981 411.791 280.981C327.704 280.981 259.535 287.043 259.535 169.661C259.535 85.4516 327.704 37.6372 411.791 37.6372C495.878 37.6372 564.047 85.4516 564.047 169.661Z" fill="#121212"/>
<path opacity="0.28" d="M420.865 49.2487C420.865 49.2487 294.193 37.6322 284.364 191.891C284.364 191.891 274.46 283.789 411.79 280.976C411.79 280.976 529.124 285.472 534.879 209.199C540.213 138.572 534.418 56.7346 420.865 49.2487Z" fill="#8D8DB1"/>
<path d="M490.387 239.286C533.799 195.813 533.799 125.33 490.387 81.8567C446.975 38.3839 376.59 38.3839 333.178 81.8567C289.767 125.33 289.767 195.813 333.178 239.286C376.59 282.758 446.975 282.758 490.387 239.286Z" fill="#8D8DB1"/>
<path d="M484.177 233.068C524.16 193.029 524.16 128.113 484.177 88.0746C444.195 48.0358 379.37 48.0358 339.387 88.0746C299.405 128.113 299.405 193.029 339.387 233.068C379.37 273.106 444.195 273.106 484.177 233.068Z" fill="#BDBDD8"/>
<path d="M411.666 72.4818H429.921C432.634 72.4818 434.507 75.2136 433.525 77.7477L423.61 103.419L415.274 125.02C413.999 128.319 409.338 128.319 408.067 125.02L399.726 103.419L389.811 77.7477C388.83 75.2136 390.702 72.4818 393.415 72.4818H411.666Z" fill="#121212"/>
<path d="M411.667 247.885H393.411C390.698 247.885 388.826 245.154 389.808 242.619L399.722 216.949L408.063 195.347C409.339 192.048 414 192.048 415.27 195.347L423.611 216.949L433.526 242.619C434.508 245.154 432.635 247.885 429.923 247.885H411.667Z" fill="#121212"/>
<path d="M473.597 98.168L486.508 111.097C488.427 113.018 487.824 116.272 485.339 117.372L460.2 128.502L439.044 137.868C435.815 139.297 432.521 135.998 433.948 132.764L443.301 111.579L454.415 86.4044C455.514 83.9159 458.763 83.3128 460.681 85.2337L473.597 98.168Z" fill="#121212"/>
<path d="M349.743 222.194L336.832 209.265C334.914 207.344 335.516 204.09 338.001 202.99L363.14 191.86L384.296 182.494C387.525 181.065 390.82 184.364 389.393 187.598L380.04 208.784L368.925 233.958C367.827 236.446 364.578 237.049 362.659 235.129L349.743 222.194Z" fill="#121212"/>
<path d="M499.24 160.184V178.465C499.24 181.182 496.512 183.057 493.982 182.074L468.347 172.145L446.776 163.792C443.481 162.515 443.481 157.847 446.776 156.575L468.347 148.222L493.982 138.294C496.512 137.31 499.24 139.186 499.24 141.902V160.184Z" fill="#121212"/>
<path d="M324.082 160.184V141.902C324.082 139.186 326.81 137.31 329.341 138.294L354.976 148.222L376.546 156.575C379.841 157.852 379.841 162.52 376.546 163.792L354.976 172.145L329.341 182.074C326.81 183.057 324.082 181.182 324.082 178.465V160.184Z" fill="#121212"/>
<path d="M473.592 222.194L460.681 235.123C458.763 237.044 455.514 236.441 454.415 233.953L443.301 208.778L433.948 187.593C432.521 184.359 435.815 181.06 439.044 182.489L460.2 191.855L485.339 202.985C487.824 204.085 488.427 207.339 486.508 209.26L473.592 222.194Z" fill="#121212"/>
<path d="M349.74 98.168L362.652 85.2387C364.57 83.3178 367.819 83.921 368.917 86.4095L380.032 111.584L389.385 132.769C390.812 136.003 387.517 139.302 384.288 137.873L363.132 128.507L337.993 117.377C335.508 116.277 334.906 113.023 336.824 111.102L349.74 98.168Z" fill="#121212"/>
<path d="M433.177 165.685C435.964 153.862 428.653 142.015 416.847 139.223C405.041 136.432 393.21 143.753 390.423 155.575C387.635 167.398 394.946 179.245 406.752 182.037C418.558 184.829 430.389 177.508 433.177 165.685Z" fill="#121212"/>
<path d="M411.794 169.661C416.805 169.661 420.868 165.593 420.868 160.574C420.868 155.555 416.805 151.486 411.794 151.486C406.782 151.486 402.719 155.555 402.719 160.574C402.719 165.593 406.782 169.661 411.794 169.661Z" fill="white"/>
<path opacity="0.28" d="M327.696 69.0505C327.696 69.0505 263.312 118.948 274.999 188.257C274.999 188.252 250.062 117.579 327.696 69.0505Z" fill="#8D8DB1"/>
<path opacity="0.28" d="M526.969 94.5694C526.969 94.5694 550.837 133.991 549.162 202.767C549.162 202.762 560.889 130.63 526.969 94.5694Z" fill="#8D8DB1"/>
<path d="M708.478 224.054H589.297V163.868L712.562 0H771.652V162.662H812.486V224.059H771.652V281.209H708.478V224.054ZM708.478 99.2879L661.91 162.662H708.483V99.2879H708.478Z" fill="#121212"/>
<path d="M119.186 224.054H0L8.37628 163.868L131.642 0H182.355V162.662H223.189V224.059H182.355V281.209H119.186V224.054ZM119.186 99.2879L72.613 162.662H119.186V99.2879Z" fill="#121212"/>
<path d="M876.315 50.5309H869.203V121.796H876.315V50.5309Z" fill="#BDBDD8"/>
<path d="M909.958 44.0536H834.531V50.5309H909.958V44.0536Z" fill="#121212"/>
<path d="M836.221 52.3302H834.586C834.045 52.3302 833.609 51.8892 833.609 51.352V43.2326C833.609 42.6903 834.05 42.2544 834.586 42.2544H836.221C836.763 42.2544 837.198 42.6953 837.198 43.2326V51.352C837.203 51.8943 836.763 52.3302 836.221 52.3302Z" fill="#121212"/>
<path d="M910.772 52.3302H909.137C908.595 52.3302 908.16 51.8892 908.16 51.352V43.2326C908.16 42.6903 908.6 42.2544 909.137 42.2544H910.772C911.314 42.2544 911.749 42.6953 911.749 43.2326V51.352C911.754 51.8943 911.314 52.3302 910.772 52.3302Z" fill="#121212"/>
<path d="M881.018 42.9183H864.25V51.6713H881.018V42.9183Z" fill="#BDBDD8"/>
<path opacity="0.33" d="M869.203 51.6712H876.315L869.203 55.6346V51.6712Z" fill="#121212"/>
<path d="M887.996 267.723H857.543V122.07C857.543 116.221 862.275 111.482 868.116 111.482H877.423C883.264 111.482 887.996 116.221 887.996 122.07V267.723Z" fill="#F02801"/>
<mask id="mask0_712_2574" style="mask-type:luminance" maskUnits="userSpaceOnUse" x="857" y="111" width="31" height="157">
<path d="M888 267.723H857.547V122.07C857.547 116.221 862.279 111.482 868.12 111.482H877.427C883.268 111.482 888 116.221 888 122.07V267.723Z" fill="white"/>
</mask>
<g mask="url(#mask0_712_2574)">
<path d="M893.59 106.971H872.637V273.607H893.59V106.971Z" fill="#C1271B"/>
</g>
<path d="M899.026 280.16H847.078C847.078 272.923 852.939 267.054 860.166 267.054H885.933C893.165 267.054 899.026 272.923 899.026 280.16Z" fill="#121212"/>
<path d="M901.814 283.07H844.147C843.621 283.07 843.195 282.644 843.195 282.117V280.358C843.195 279.831 843.621 279.405 844.147 279.405H901.814C902.341 279.405 902.766 279.831 902.766 280.358V282.117C902.766 282.639 902.335 283.07 901.814 283.07Z" fill="#121212"/>
<path d="M879.931 113.226H865.588C864.242 113.226 863.148 112.131 863.148 110.783V109.419C863.148 108.071 864.242 106.977 865.588 106.977H879.931C881.278 106.977 882.371 108.071 882.371 109.419V110.783C882.376 112.131 881.283 113.226 879.931 113.226Z" fill="#121212"/>
<path opacity="0.32" d="M864.843 197.993C863.173 197.993 861.816 196.635 861.816 194.962V174.344C861.816 172.672 863.173 171.313 864.843 171.313C866.514 171.313 867.87 172.672 867.87 174.344V194.962C867.87 196.635 866.514 197.993 864.843 197.993Z" fill="white"/>
<path opacity="0.32" d="M864.843 207.897C863.173 207.897 861.816 206.538 861.816 204.866V202.757C861.816 201.085 863.173 199.726 864.843 199.726C866.514 199.726 867.87 201.085 867.87 202.757V204.866C867.87 206.538 866.514 207.897 864.843 207.897Z" fill="white"/>
<path d="M898.265 149.105C900.549 135.014 890.993 121.737 876.921 119.45C862.849 117.163 849.591 126.732 847.307 140.824C845.023 154.915 854.579 168.192 868.651 170.479C882.723 172.766 895.982 163.197 898.265 149.105Z" fill="#121212"/>
<path d="M881.454 165.903C893.003 161.112 898.487 147.853 893.703 136.288C888.919 124.723 875.679 119.231 864.13 124.022C852.581 128.812 847.097 142.071 851.881 153.636C856.664 165.201 869.905 170.693 881.454 165.903Z" fill="white"/>
<mask id="mask1_712_2574" style="mask-type:luminance" maskUnits="userSpaceOnUse" x="850" y="122" width="46" height="46">
<path d="M881.454 165.903C893.003 161.112 898.487 147.853 893.703 136.288C888.919 124.723 875.679 119.231 864.13 124.022C852.581 128.812 847.097 142.071 851.881 153.636C856.664 165.201 869.905 170.693 881.454 165.903Z" fill="white"/>
</mask>
<g mask="url(#mask1_712_2574)">
<path d="M886.649 125.299C886.649 125.299 887.479 155.789 859.293 164.958C859.293 164.958 879.518 177.948 895.384 160.538C911.256 143.129 886.649 125.299 886.649 125.299Z" fill="#BDBDD8"/>
</g>
<path d="M872.977 148.542C874.946 148.542 876.541 146.944 876.541 144.974C876.541 143.003 874.946 141.406 872.977 141.406C871.009 141.406 869.414 143.003 869.414 144.974C869.414 146.944 871.009 148.542 872.977 148.542Z" fill="#121212"/>
<path d="M873.62 125.298H872.34V131.431H873.62V125.298Z" fill="#121212"/>
<path d="M873.62 158.825H872.34V164.958H873.62V158.825Z" fill="#121212"/>
<path d="M892.781 145.769V144.487H886.657V145.769H892.781Z" fill="#121212"/>
<path d="M859.301 145.765V144.484H853.176V145.765H859.301Z" fill="#121212"/>
<path d="M887.429 131.549L886.523 130.642L882.193 134.978L883.098 135.885L887.429 131.549Z" fill="#121212"/>
<path d="M863.757 155.253L862.852 154.346L858.521 158.683L859.427 159.59L863.757 155.253Z" fill="#121212"/>
<path d="M886.528 159.599L887.434 158.692L883.103 154.356L882.198 155.263L886.528 159.599Z" fill="#121212"/>
<path d="M862.848 135.887L863.754 134.981L859.423 130.644L858.518 131.551L862.848 135.887Z" fill="#121212"/>
<path d="M881.241 136.854L873.517 142.936L872.98 145.126L875.172 144.588L881.241 136.854Z" fill="#F1BF46"/>
<path d="M416.702 253.248H406.867V263.095H416.702V253.248Z" fill="#121212"/>
<path d="M718.783 268.184C698.822 268.184 679.964 262.644 661.136 251.251C644.48 241.175 629.909 228.048 614.477 214.151C584.677 187.309 553.864 159.555 507.392 156.261C482.269 154.477 461.715 160.797 446.299 175.049C416.017 203.036 415.208 252.781 415.203 253.278L408.375 253.217C408.38 252.675 408.532 239.796 412.657 223.096C416.488 207.587 424.621 185.794 441.642 170.052C458.501 154.451 480.786 147.518 507.883 149.439C556.693 152.9 588.397 181.455 619.053 209.067C648.903 235.955 677.094 261.347 718.794 261.347C767.255 261.347 789.028 251.413 806.519 243.425C819.957 237.293 831.562 231.996 850.446 233.476L849.914 240.293C832.782 238.95 822.447 243.669 809.354 249.649C791.25 257.911 768.727 268.184 718.783 268.184Z" fill="#F02801"/>
<path d="M857.411 229.64H842.941V244.13H857.411V229.64Z" fill="#121212"/>
</svg>
