<svg width="49" height="40" viewBox="0 0 49 40" fill="none" xmlns="http://www.w3.org/2000/svg">
<path d="M47.4408 5.73989L34.876 0.0686599C34.6732 -0.0228866 34.4406 -0.0228866 34.2377 0.0686599L30.0805 1.94507V1.66937C30.0805 1.24092 29.7331 0.893548 29.3047 0.893548H26.1011C25.6726 0.893548 25.3252 1.24092 25.3252 1.66937V4.09137L24.0506 4.66674L13.8635 0.0686599C13.6606 -0.0228866 13.4281 -0.0228866 13.2252 0.0686599L9.06797 1.94507V1.66937C9.06797 1.24092 8.7206 0.893548 8.29216 0.893548H5.08851C4.66007 0.893548 4.31269 1.24092 4.31269 1.66937V4.09137L0.660338 5.73989C0.174385 5.95925 -0.0864833 6.47711 0.0259133 6.99923C0.13831 7.52136 0.589157 7.88599 1.12224 7.88599H2.26221V19.7273H1.26189C0.833443 19.7273 0.48607 20.0747 0.48607 20.5031V23.1672C0.48607 23.5956 0.833443 23.943 1.26189 23.943H2.26221V35.7843H1.26189C0.833443 35.7843 0.48607 36.1317 0.48607 36.5601V39.2242C0.48607 39.6526 0.833443 40 1.26189 40H46.8391C47.2676 40 47.615 39.6526 47.615 39.2242V36.5601C47.615 36.1317 47.2676 35.7843 46.8391 35.7843H45.8388V23.9432H46.8391C47.2676 23.9432 47.615 23.5958 47.615 23.1674V20.5033C47.615 20.0749 47.2676 19.7275 46.8391 19.7275H45.8388V7.88609H46.9788C47.512 7.88609 47.9628 7.52136 48.0752 6.99923C48.1876 6.47711 47.9266 5.95925 47.4408 5.73989ZM26.8768 2.44518H28.5288V2.64544L26.8768 3.3911V2.44518ZM5.86433 2.44518H7.51634V2.64544L5.86433 3.3911V2.44518ZM3.10795 6.33756L13.5444 1.62699L23.2747 6.01889V19.7274H3.81384V7.11027C3.81384 6.7053 3.50371 6.37286 3.10795 6.33756ZM2.03771 21.279H23.2747V22.3915H2.03771V21.279ZM3.81384 23.9432H23.2747V35.7845H17.8187V28.8312C17.8187 28.4028 17.4713 28.0554 17.0429 28.0554H10.0458C9.61735 28.0554 9.26998 28.4028 9.26998 28.8312V35.7845H3.81384V23.9432ZM10.8216 35.7845V29.607H16.2671V35.7845H10.8216ZM46.0633 38.4486H2.03771V37.3361H46.0633V38.4486ZM37.2795 35.7845H31.8342V29.607H37.2795V35.7845ZM44.2872 35.7845H38.8312V28.8312C38.8312 28.4028 38.4838 28.0554 38.0553 28.0554H31.0583C30.6299 28.0554 30.2825 28.4028 30.2825 28.8312V35.7845H24.8264V23.9432H44.2872V35.7845ZM46.0633 22.3916H24.8264V21.2791H46.0633V22.3916ZM24.8264 19.7274V6.01889L34.5569 1.62699L44.9933 6.33756C44.5975 6.37286 44.2873 6.7053 44.2873 7.11027V19.7274H24.8264ZM8.9258 17.4266H18.1629C18.5913 17.4266 18.9387 17.0792 18.9387 16.6508V11.4952C18.9387 8.52081 16.5188 6.10084 13.5443 6.10084C10.57 6.10084 8.14999 8.52071 8.14999 11.4952V16.6508C8.14999 17.0793 8.49726 17.4266 8.9258 17.4266ZM9.70162 12.5396H12.7685V15.875H9.70162V12.5396ZM14.3201 15.875V12.5396H17.387V15.875H14.3201ZM17.3524 10.988H14.3201V7.73132C15.906 8.05774 17.1374 9.3647 17.3524 10.988ZM12.7684 7.73132V10.988H9.73605C9.95124 9.3647 11.1825 8.05774 12.7684 7.73132ZM34.5568 6.10093C31.5823 6.10093 29.1624 8.52081 29.1624 11.4953V16.6509C29.1624 17.0793 29.5098 17.4267 29.9382 17.4267H39.1753C39.6038 17.4267 39.9511 17.0793 39.9511 16.6509V11.4953C39.9511 8.52081 37.5312 6.10093 34.5568 6.10093ZM38.365 10.988H35.3326V7.73132C36.9186 8.05774 38.1498 9.3647 38.365 10.988ZM33.781 7.73132V10.988H30.7486C30.9638 9.3647 32.195 8.05774 33.781 7.73132ZM30.7141 12.5396H33.781V15.875H30.7141V12.5396ZM35.3326 15.875V12.5396H38.3995V15.875H35.3326Z" fill="#03060E"/>
</svg>
