<svg width="40" height="40" viewBox="0 0 40 40" fill="none" xmlns="http://www.w3.org/2000/svg">
<path d="M0 38.3332V39.1666C0 39.6267 0.373124 39.9998 0.833358 39.9998H39.1666C39.6269 39.9998 40 39.6267 40 39.1665V38.3331H0V38.3332Z" fill="#03060E"/>
<path d="M15.8334 15H2.50011C2.03987 15 1.66675 15.3731 1.66675 15.8334V39.1667C1.66675 39.6268 2.03987 40 2.50011 40H15.8334C16.2937 40 16.6668 39.6268 16.6668 39.1666V15.8334C16.6667 15.3731 16.2937 15 15.8334 15ZM15.0001 38.3333H3.33346V16.6666H15.0001V38.3333Z" fill="#03060E"/>
<path d="M37.4999 5H24.1666C23.7064 5 23.3333 5.37312 23.3333 5.83336V39.1667C23.3333 39.6269 23.7064 40 24.1666 40H37.4999C37.9602 40 38.3333 39.6269 38.3333 39.1667V5.83336C38.3333 5.37312 37.9602 5 37.4999 5ZM36.6666 38.3333H25V6.66664H36.6666V38.3333Z" fill="#03060E"/>
<path d="M31.6666 0H9.16661C8.70638 0 8.33325 0.373124 8.33325 0.833358V13.3333H9.99997V1.66664H30.8333V3.33327H32.4999V0.83328C32.4999 0.373124 32.1268 0 31.6666 0Z" fill="#03060E"/>
<path d="M6.66664 18.3334H5V33.3333H6.66664V18.3334Z" fill="#03060E"/>
<path d="M9.99989 18.3334H8.33325V33.3333H9.99989V18.3334Z" fill="#03060E"/>
<path d="M13.3334 18.3334H11.6667V33.3333H13.3334V18.3334Z" fill="#03060E"/>
<path d="M33.3334 9.16663H24.1667V10.8333H33.3334V9.16663Z" fill="#03060E"/>
<path d="M33.3334 13.3334H24.1667V15H33.3334V13.3334Z" fill="#03060E"/>
<path d="M33.3334 17.5H24.1667V19.1666H33.3334V17.5Z" fill="#03060E"/>
<path d="M33.3334 21.6666H24.1667V23.3333H33.3334V21.6666Z" fill="#03060E"/>
<path d="M33.3334 25.8334H24.1667V27.5H33.3334V25.8334Z" fill="#03060E"/>
<path d="M33.3334 30H24.1667V31.6666H33.3334V30Z" fill="#03060E"/>
<path d="M14.1666 4.16663H12.5V6.66662H14.1666V4.16663Z" fill="#03060E"/>
<path d="M14.1666 9.16663H12.5V11.6666H14.1666V9.16663Z" fill="#03060E"/>
<path d="M17.4999 9.16663H15.8333V11.6666H17.4999V9.16663Z" fill="#03060E"/>
<path d="M17.4999 4.16663H15.8333V6.66662H17.4999V4.16663Z" fill="#03060E"/>
<path d="M20.8334 4.16663H19.1667V6.66662H20.8334V4.16663Z" fill="#03060E"/>
<path d="M20.8334 9.16663H19.1667V11.6666H20.8334V9.16663Z" fill="#03060E"/>
<path d="M20.8334 14.1666H19.1667V16.6666H20.8334V14.1666Z" fill="#03060E"/>
<path d="M20.8334 19.1666H19.1667V21.6666H20.8334V19.1666Z" fill="#03060E"/>
<path d="M20.8334 24.1666H19.1667V26.6666H20.8334V24.1666Z" fill="#03060E"/>
<path d="M20.8334 29.1666H19.1667V31.6666H20.8334V29.1666Z" fill="#03060E"/>
<path d="M31.6667 34.1666H27.5001C27.0399 34.1666 26.6667 34.5397 26.6667 35V39.1666H28.3334V35.8333H30.8334V39.1666H32.5001V35C32.5001 34.5397 32.127 34.1666 31.6667 34.1666Z" fill="#03060E"/>
<path d="M12.5 35H5.83336C5.37312 35 5 35.3731 5 35.8334V39.1667H6.66664V36.6667H11.6666V39.1667H13.3333V35.8334C13.3333 35.3731 12.9602 35 12.5 35Z" fill="#03060E"/>
</svg>
