<svg width="40" height="40" viewBox="0 0 40 40" fill="none" xmlns="http://www.w3.org/2000/svg">
<path d="M16.129 2.58069H8.3871C8.216 2.58069 8.0519 2.64866 7.93091 2.76965C7.80992 2.89064 7.74194 3.05474 7.74194 3.22585V7.09682C7.74194 7.26792 7.80992 7.43202 7.93091 7.55302C8.0519 7.67401 8.216 7.74198 8.3871 7.74198H16.129C16.3001 7.74198 16.4642 7.67401 16.5852 7.55302C16.7062 7.43202 16.7742 7.26792 16.7742 7.09682V3.22585C16.7742 3.05474 16.7062 2.89064 16.5852 2.76965C16.4642 2.64866 16.3001 2.58069 16.129 2.58069ZM15.4839 6.45166H9.03227V3.87101H15.4839V6.45166Z" fill="#03060E"/>
<path d="M9.03237 34.8388H14.1937C14.3648 34.8388 14.5289 34.7708 14.6499 34.6498C14.7708 34.5288 14.8388 34.3647 14.8388 34.1936V14.8388C14.8388 14.6677 14.7708 14.5036 14.6499 14.3826C14.5289 14.2616 14.3648 14.1936 14.1937 14.1936H9.03237C8.86126 14.1936 8.69716 14.2616 8.57617 14.3826C8.45518 14.5036 8.38721 14.6677 8.38721 14.8388V34.1936C8.38721 34.3647 8.45518 34.5288 8.57617 34.6498C8.69716 34.7708 8.86126 34.8388 9.03237 34.8388ZM9.67753 33.5484V25.1613H13.5485V33.5484H9.67753ZM13.5485 15.4839V23.871H9.67753V15.4839H13.5485Z" fill="#03060E"/>
<path d="M16.7743 24.5162H23.2259C23.397 24.5162 23.5611 24.4482 23.6821 24.3272C23.8031 24.2062 23.8711 24.0421 23.8711 23.871V14.8388C23.8711 14.6677 23.8031 14.5036 23.6821 14.3826C23.5611 14.2616 23.397 14.1936 23.2259 14.1936H16.7743C16.6032 14.1936 16.4391 14.2616 16.3181 14.3826C16.1971 14.5036 16.1292 14.6677 16.1292 14.8388V23.871C16.1292 24.0421 16.1971 24.2062 16.3181 24.3272C16.4391 24.4482 16.6032 24.5162 16.7743 24.5162ZM17.4195 15.4839H22.5808V23.2259H17.4195V15.4839Z" fill="#03060E"/>
<path d="M25.8065 34.8388H30.9678C31.1389 34.8388 31.303 34.7708 31.424 34.6498C31.545 34.5288 31.613 34.3647 31.613 34.1936V14.8388C31.613 14.6677 31.545 14.5036 31.424 14.3826C31.303 14.2616 31.1389 14.1936 30.9678 14.1936H25.8065C25.6354 14.1936 25.4713 14.2616 25.3503 14.3826C25.2293 14.5036 25.1614 14.6677 25.1614 14.8388V34.1936C25.1614 34.3647 25.2293 34.5288 25.3503 34.6498C25.4713 34.7708 25.6354 34.8388 25.8065 34.8388ZM26.4517 33.5484V25.1613H30.3227V33.5484H26.4517ZM30.3227 15.4839V23.871H26.4517V15.4839H30.3227Z" fill="#03060E"/>
<path d="M19.3548 29.6775H18.0645V32.2581H19.3548V29.6775Z" fill="#03060E"/>
<path d="M40.0052 31.6129C40.0044 31.1027 39.8523 30.6042 39.5682 30.1803C39.284 29.7565 38.8807 29.4265 38.409 29.2318C37.9374 29.0372 37.4186 28.9867 36.9183 29.0868C36.418 29.1869 35.9586 29.4331 35.5981 29.7942C35.1418 29.6532 34.6548 29.6443 34.1936 29.7684V12.9032H36.1291C36.3002 12.9032 36.4643 12.8353 36.5853 12.7143C36.7063 12.5933 36.7743 12.4292 36.7743 12.2581V9.67742C36.7743 9.50631 36.7063 9.34221 36.5853 9.22122C36.4643 9.10023 36.3002 9.03226 36.1291 9.03226H34.8388V4.51613C34.8388 4.34502 34.7708 4.18092 34.6498 4.05993C34.5288 3.93894 34.3647 3.87097 34.1936 3.87097H19.3549V0.645161C19.3549 0.474054 19.2869 0.309955 19.1659 0.188963C19.045 0.0679721 18.8809 0 18.7097 0H5.80652C5.63542 0 5.47132 0.0679721 5.35033 0.188963C5.22934 0.309955 5.16136 0.474054 5.16136 0.645161V9.03226H4.5162C4.34509 9.03226 4.181 9.10023 4.06 9.22122C3.93901 9.34221 3.87104 9.50631 3.87104 9.67742V12.2581C3.87104 12.4292 3.93901 12.5933 4.06 12.7143C4.181 12.8353 4.34509 12.9032 4.5162 12.9032H5.80652V29.7658C5.34674 29.6427 4.86145 29.6528 4.40717 29.7948C3.99393 29.3763 3.44984 29.1118 2.8654 29.0454C2.28097 28.979 1.69142 29.1148 1.19484 29.43C0.698262 29.7452 0.324584 30.221 0.135971 30.7781C-0.0526423 31.3353 -0.0448196 31.9402 0.158138 32.4923C0.0580587 32.606 0.00198873 32.7518 7.30421e-05 32.9032V39.3548C7.30421e-05 39.5259 0.0680452 39.69 0.189036 39.811C0.310028 39.932 0.474127 40 0.645234 40H39.3549C39.526 40 39.6901 39.932 39.8111 39.811C39.9321 39.69 40.0001 39.5259 40.0001 39.3548V36.7742H40.0052V32.9032C40.003 32.7518 39.947 32.6061 39.8472 32.4923C39.9506 32.2106 40.0041 31.913 40.0052 31.6129ZM35.4723 31.1419C35.6165 31.2241 35.7868 31.2475 35.9478 31.2074C36.1088 31.1673 36.2481 31.0666 36.3368 30.9265C36.5134 30.6345 36.7988 30.4246 37.1301 30.343C37.4614 30.2614 37.8116 30.3147 38.1036 30.4913C38.3956 30.6679 38.6055 30.9532 38.6871 31.2846C38.7687 31.6159 38.7154 31.9661 38.5388 32.2581H34.1936V31.1613C34.3856 31.0441 34.6055 30.9805 34.8303 30.9771C35.0552 30.9737 35.2769 31.0306 35.4723 31.1419ZM38.7149 36.129H34.1936V33.5484H38.7149V36.129ZM33.5485 9.03226H30.9678V5.16129H33.5485V9.03226ZM23.2259 9.03226V5.16129H25.8065V9.03226H23.2259ZM27.0968 5.16129H29.6775V9.03226H27.0968V5.16129ZM21.9356 5.16129V9.03226H19.3549V5.16129H21.9356ZM6.45169 1.29032H18.0646V9.03226H6.45169V1.29032ZM5.16136 11.6129V10.3226H35.4839V11.6129H5.16136ZM32.9033 12.9032V36.129H23.871V26.4516C23.871 26.2805 23.8031 26.1164 23.6821 25.9954C23.5611 25.8744 23.397 25.8065 23.2259 25.8065H16.7743C16.6032 25.8065 16.4391 25.8744 16.3181 25.9954C16.1971 26.1164 16.1291 26.2805 16.1291 26.4516V36.129H7.09685V12.9032H32.9033ZM22.5807 36.129H17.4194V27.0968H22.5807V36.129ZM5.80652 33.5484V36.129H1.2904V33.5484H5.80652ZM2.58072 30.3226C2.79818 30.3228 3.01201 30.3783 3.20215 30.4838C3.3923 30.5893 3.55253 30.7414 3.66781 30.9258C3.75644 31.0658 3.8955 31.1663 4.0562 31.2065C4.2169 31.2467 4.38692 31.2236 4.53104 31.1419C4.72574 31.0308 4.94653 30.9735 5.17071 30.976C5.39488 30.9785 5.61435 31.0407 5.80652 31.1561V32.2581H1.46588C1.35149 32.0623 1.29086 31.8398 1.29016 31.613C1.28945 31.3863 1.34868 31.1634 1.46185 30.9669C1.57502 30.7705 1.73811 30.6074 1.93459 30.4942C2.13108 30.3811 2.35398 30.3219 2.58072 30.3226ZM38.7098 38.7097H1.2904V37.4194H38.7098V38.7097Z" fill="#03060E"/>
</svg>
