<svg width="37" height="40" viewBox="0 0 37 40" fill="none" xmlns="http://www.w3.org/2000/svg">
<path d="M35.7218 7.05643L16.8291 0.0487772C16.5892 -0.0402071 16.3212 -0.0060665 16.1112 0.139949C15.9012 0.285965 15.7761 0.525574 15.7761 0.781277V10.3956L0.464062 17.197C0.181875 17.3224 0 17.6022 0 17.911V39.2188C0 39.6502 0.349765 40 0.781249 40H35.4502C35.8817 40 36.2315 39.6502 36.2315 39.2188V7.78893C36.2315 7.46221 36.0282 7.17002 35.7218 7.05643ZM1.5625 35.4105H15.7761V38.4375H1.5625V35.4105ZM11.5473 33.848H5.79125V29.2223H11.5473V33.848ZM23.9884 38.4375V31.214H28.019V38.4375H23.9884ZM34.669 38.4375H32.9601V33.892C32.9601 33.4605 32.6103 33.1108 32.1788 33.1108C31.7473 33.1108 31.3976 33.4605 31.3976 33.892V38.4375H29.5815V30.4327C29.5815 30.0013 29.2318 29.6515 28.8003 29.6515H23.2072C22.7757 29.6515 22.4259 30.0013 22.4259 30.4327V38.4375H20.6098V33.892C20.6098 33.4605 20.26 33.1108 19.8285 33.1108C19.397 33.1108 19.0473 33.4605 19.0473 33.892V38.4375H17.3386V26.6277C17.3386 26.1962 16.9888 25.8464 16.5573 25.8464C16.1258 25.8464 15.7761 26.1962 15.7761 26.6277V33.848H13.1098V28.4411C13.1098 28.0096 12.7601 27.6599 12.3286 27.6599H5.01C4.57851 27.6599 4.22875 28.0096 4.22875 28.4411V33.848H1.5625V18.4188L15.7761 12.1053V19.5642C15.7761 19.9957 16.1258 20.3455 16.5573 20.3455C16.9888 20.3455 17.3386 19.9957 17.3386 19.5642V1.90432L34.669 8.33237V38.4375Z" fill="black"/>
<path d="M16.5572 23.8915C16.2315 23.8915 15.9315 23.6803 15.8224 23.3734C15.7134 23.0666 15.8085 22.7133 16.0615 22.5065C16.3181 22.2969 16.688 22.2731 16.9694 22.4473C17.2487 22.6201 17.3915 22.9604 17.3193 23.2808C17.2401 23.6328 16.9187 23.8915 16.5572 23.8915Z" fill="black"/>
<path d="M12.3286 25.4274H5.01025C4.57877 25.4274 4.229 25.0776 4.229 24.6462V20.3116C4.229 19.9972 4.41744 19.7134 4.70728 19.5915L9.57916 17.5414C9.67509 17.501 9.77806 17.4802 9.88212 17.4802H12.3285C12.76 17.4802 13.1098 17.83 13.1098 18.2615V24.6462C13.1099 25.0776 12.7601 25.4274 12.3286 25.4274ZM5.7915 23.8649H11.5473V19.0427H10.0398L5.7915 20.8304V23.8649Z" fill="black"/>
<path d="M32.1788 16.9887H27.876C27.4445 16.9887 27.0947 16.639 27.0947 16.2075V10.8638C27.0947 10.6081 27.2199 10.3685 27.4299 10.2225C27.6398 10.0764 27.9079 10.0423 28.1478 10.1313L32.4506 11.7275C32.7569 11.8411 32.9601 12.1333 32.9601 12.46V16.2075C32.96 16.639 32.6103 16.9887 32.1788 16.9887ZM28.6572 15.4262H31.3975V13.0034L28.6572 11.9869V15.4262Z" fill="black"/>
<path d="M24.1321 16.9887H19.8286C19.3971 16.9887 19.0474 16.6389 19.0474 16.2074V8.15259C19.0474 7.7211 19.3971 7.37134 19.8286 7.37134H20.5666C20.6593 7.37134 20.7513 7.38782 20.8382 7.42009L24.4038 8.7422C24.7101 8.85579 24.9134 9.14798 24.9134 9.4747V16.2074C24.9134 16.6389 24.5636 16.9887 24.1321 16.9887ZM20.6099 15.4262H23.3509V10.0182L20.6099 9.00181V15.4262Z" fill="black"/>
<path d="M32.1791 27.0967H27.8757C27.4442 27.0967 27.0945 26.7469 27.0945 26.3154V19.8185C27.0945 19.387 27.4442 19.0372 27.8757 19.0372H32.1791C32.6106 19.0372 32.9603 19.387 32.9603 19.8185V26.3154C32.9603 26.7469 32.6106 27.0967 32.1791 27.0967ZM28.6571 25.5342H31.3979V20.5997H28.6571V25.5342Z" fill="black"/>
<path d="M24.1319 27.0967H19.8286C19.3971 27.0967 19.0474 26.7469 19.0474 26.3154V19.8185C19.0474 19.387 19.3971 19.0372 19.8286 19.0372H24.1319C24.5634 19.0372 24.9131 19.387 24.9131 19.8185V26.3154C24.9131 26.7469 24.5634 27.0967 24.1319 27.0967ZM20.6098 25.5342H23.3506V20.5997H20.6098V25.5342Z" fill="black"/>
</svg>
