<svg width="44" height="40" viewBox="0 0 44 40" fill="none" xmlns="http://www.w3.org/2000/svg">
<path d="M38.9748 24.8412L28.3296 19.8159C28.2143 19.7612 28.0873 19.7358 27.9598 19.742C27.8324 19.7482 27.7084 19.7857 27.5989 19.8513C27.5989 19.8516 22.5041 22.8927 16.9962 26.1647C16.8803 26.2385 16.7858 26.3412 16.7218 26.4628C16.6578 26.5843 16.6266 26.7205 16.6313 26.8578C16.636 26.995 16.6765 27.1287 16.7487 27.2456C16.8209 27.3625 16.9223 27.4585 17.0429 27.5242L35.2426 36.7366C35.4262 36.8261 35.6377 36.8398 35.8312 36.7747C36.0248 36.7095 36.185 36.5709 36.2772 36.3886C36.3694 36.2063 36.3861 35.9951 36.3239 35.8006C36.2616 35.606 36.1253 35.4438 35.9444 35.349L19.0106 26.777C23.1811 24.2977 26.9025 22.0785 28.0402 21.3995L38.3111 26.2478C38.497 26.3319 38.7086 26.3395 38.9001 26.269C39.0916 26.1985 39.2477 26.0556 39.3348 25.871C39.4219 25.6864 39.433 25.4751 39.3656 25.2824C39.2983 25.0898 39.1579 24.9313 38.9748 24.8412Z" fill="#03060E"/>
<path d="M43.4391 11.2336C43.3329 11.0569 43.1611 10.9296 42.9612 10.8794C42.7613 10.8293 42.5497 10.8605 42.3727 10.9662L32.1422 17.0985C32.0241 17.1713 31.9274 17.2741 31.8621 17.3965C31.7967 17.5189 31.7651 17.6564 31.7703 17.795C31.7756 17.9337 31.8176 18.0684 31.892 18.1855C31.9664 18.3026 32.0706 18.3978 32.1938 18.4614L40.9289 22.8286C41.0203 22.8745 41.1198 22.9019 41.2218 22.9093C41.3238 22.9167 41.4263 22.9039 41.5233 22.8717C41.6204 22.8394 41.7101 22.7884 41.7874 22.7214C41.8647 22.6544 41.928 22.5729 41.9738 22.4814C42.0195 22.3899 42.0468 22.2903 42.054 22.1883C42.0612 22.0863 42.0482 21.9839 42.0157 21.8869C41.9833 21.7899 41.9321 21.7002 41.865 21.6231C41.7978 21.5459 41.7162 21.4827 41.6246 21.4372L34.1571 17.7038L43.1717 12.3007C43.2594 12.2482 43.3359 12.179 43.3968 12.097C43.4577 12.0149 43.5018 11.9217 43.5267 11.8226C43.5515 11.7234 43.5565 11.6204 43.5415 11.5193C43.5265 11.4183 43.4917 11.3212 43.4391 11.2336Z" fill="#03060E"/>
<path d="M33.1921 38.5271L13.0662 28.8992C12.9068 28.8376 12.7334 28.8215 12.5654 28.853C8.53252 31.0829 4.02732 33.9023 3.65323 34.0395C3.48939 34.1102 3.35472 34.2349 3.27165 34.3929C3.18857 34.5508 3.16211 34.7324 3.19666 34.9075C3.23121 35.0826 3.3247 35.2405 3.46155 35.3551C3.5984 35.4696 3.77035 35.5338 3.94877 35.537C4.22884 35.537 4.23781 35.5335 12.7716 30.4823L32.5207 39.93C32.7061 40.0144 32.9172 40.0228 33.1087 39.9533C33.3002 39.8837 33.4567 39.7418 33.5447 39.558C33.6327 39.3742 33.645 39.1633 33.5791 38.9705C33.5131 38.7777 33.3742 38.6185 33.1921 38.5271Z" fill="#03060E"/>
<path d="M19.7307 9.44674C19.729 7.96143 19.1382 6.53746 18.0879 5.48722C17.0375 4.43698 15.6135 3.84624 14.1282 3.8446C6.70165 4.1387 6.70374 14.7559 14.1283 15.0489C15.6136 15.0472 17.0376 14.4565 18.0879 13.4062C19.1382 12.356 19.729 10.932 19.7307 9.44674ZM10.0816 9.44674C10.0816 8.64638 10.3189 7.864 10.7635 7.19853C11.2082 6.53305 11.8402 6.01438 12.5796 5.7081C13.3191 5.40181 14.1327 5.32168 14.9177 5.47782C15.7027 5.63396 16.4237 6.01938 16.9897 6.58532C17.5556 7.15125 17.941 7.8723 18.0971 8.65728C18.2533 9.44226 18.1731 10.2559 17.8668 10.9953C17.5605 11.7348 17.0419 12.3668 16.3764 12.8114C15.7109 13.2561 14.9285 13.4934 14.1282 13.4934C13.0553 13.4922 12.0267 13.0655 11.2681 12.3068C10.5095 11.5482 10.0827 10.5196 10.0816 9.44674Z" fill="#03060E"/>
<path d="M14.1283 26.5118C14.7127 26.5127 15.2838 26.3374 15.7671 26.0088C16.2503 25.6801 16.6232 25.2134 16.8371 24.6696C16.8371 24.6696 17.4658 23.0855 17.6453 22.6703L29.7095 15.4397C29.8249 15.3673 29.9195 15.2663 29.9841 15.1465C30.0488 15.0266 30.0812 14.8921 30.0783 14.7559C30.0754 14.6198 30.0373 14.4868 29.9676 14.3698C29.8979 14.2528 29.7991 14.1559 29.6808 14.0885L23.5097 10.7463C23.6503 9.74948 23.6253 8.73631 23.4358 7.74764L33.4525 12.7161C33.5661 12.7723 33.6916 12.8 33.8183 12.7967C33.945 12.7934 34.0689 12.7592 34.1794 12.6971L39.8026 9.53151C39.9757 9.42695 40.1012 9.25917 40.1526 9.06369C40.2041 8.8682 40.1775 8.66036 40.0784 8.48416C39.9793 8.30796 39.8156 8.17724 39.6218 8.11967C39.428 8.0621 39.2194 8.0822 39.0402 8.17572L33.7753 11.1397L22.8242 5.70761C20.3138 -0.494628 11.6173 -2.03149 7.16853 3.03667C7.03013 3.18915 6.95786 3.3903 6.96758 3.59599C6.97729 3.80169 7.0682 3.99513 7.22036 4.13388C7.37251 4.27264 7.57349 4.34538 7.77921 4.33614C7.98492 4.32691 8.17858 4.23646 8.31769 4.08463C9.66165 2.62432 11.5055 1.7227 13.4834 1.5587C15.4612 1.39471 17.4284 1.98034 18.9945 3.19935C20.5606 4.41836 21.6112 6.18164 21.9376 8.13923C22.2641 10.0968 21.8426 12.1056 20.7568 13.7669C18.7779 17.109 16.9861 20.5586 15.3898 24.0996C15.2867 24.3486 15.1121 24.5614 14.8882 24.7114C14.6642 24.8614 14.4009 24.9417 14.1314 24.9422C13.8619 24.9428 13.5982 24.8636 13.3736 24.7145C13.1491 24.5655 12.9736 24.3534 12.8694 24.1048C11.3986 20.4545 9.57608 16.9559 7.42756 13.6586C6.76222 12.5986 6.35659 11.3965 6.24368 10.15C6.13077 8.90361 6.31378 7.64814 6.77781 6.48582C6.85431 6.29425 6.8516 6.08015 6.77028 5.89057C6.68895 5.701 6.53567 5.55149 6.34413 5.47491C5.0385 5.06254 4.94819 7.35293 4.73994 8.17035C4.42987 10.3739 4.91717 12.6158 6.114 14.4918C8.17117 17.6513 9.92327 20.9992 11.3466 24.4904L0.378928 30.975C0.202382 31.0805 0.0747832 31.2515 0.0240458 31.4508C-0.0266916 31.6501 0.00356266 31.8614 0.10819 32.0384C0.212818 32.2154 0.383302 32.3438 0.582346 32.3955C0.781391 32.4471 0.992792 32.4178 1.1703 32.314L12.2092 25.7873C12.7391 26.2548 13.4216 26.5124 14.1283 26.5118ZM22.0576 14.6194C22.5246 13.9064 22.8922 13.1331 23.1502 12.3207L27.7402 14.8066L18.8379 20.1418C19.8104 18.2441 20.8852 16.4005 22.0576 14.6194Z" fill="#03060E"/>
</svg>
