<svg width="32" height="33" viewBox="0 0 32 33" fill="none" xmlns="http://www.w3.org/2000/svg">
<path d="M28.9518 3.54736H12.6914C12.8568 3.89403 12.952 4.28107 12.952 4.69021V6.9759C12.952 8.44636 11.7558 9.64254 10.2854 9.64254H7.99967C7.02445 9.64254 6.17874 9.11074 5.71398 8.32751C5.24923 9.11074 4.40352 9.64254 3.42829 9.64254H1.1426C0.731939 9.64254 0.347181 9.54121 -0.000244141 9.37511V23.3567C-0.000244141 25.0397 1.36431 26.4043 3.04734 26.4043H15.4091C16.2175 26.4043 16.9923 26.725 17.5638 27.2972L22.4292 32.1627C23.1492 32.8827 24.3805 32.373 24.3805 31.3543V27.1662C24.3805 26.7456 24.7218 26.4043 25.1424 26.4043H28.9518C30.6349 26.4043 31.9994 25.0397 31.9994 23.3567V6.59495C31.9994 4.91192 30.6349 3.54736 28.9518 3.54736ZM25.9043 20.3091H6.09493C5.6736 20.3091 5.33303 19.9678 5.33303 19.5472C5.33303 19.1266 5.6736 18.7853 6.09493 18.7853H25.9043C26.3256 18.7853 26.6662 19.1266 26.6662 19.5472C26.6662 19.9678 26.3256 20.3091 25.9043 20.3091ZM25.9043 15.7377H6.09493C5.6736 15.7377 5.33303 15.3964 5.33303 14.9758C5.33303 14.5553 5.6736 14.2139 6.09493 14.2139H25.9043C26.3256 14.2139 26.6662 14.5553 26.6662 14.9758C26.6662 15.3964 26.3256 15.7377 25.9043 15.7377ZM25.9043 11.1663H15.2377C14.8164 11.1663 14.4758 10.825 14.4758 10.4044C14.4758 9.98387 14.8164 9.64254 15.2377 9.64254H25.9043C26.3256 9.64254 26.6662 9.98387 26.6662 10.4044C26.6662 10.825 26.3256 11.1663 25.9043 11.1663Z" fill="#FF4136"/>
<path d="M3.42832 3.54759H3.16318C2.93766 3.54759 2.76166 3.3533 2.78376 3.12854L2.9948 1.0158C3.02223 0.739236 2.80509 0.5 2.52776 0.5C2.37538 0.5 2.23214 0.573904 2.14453 0.698855L0.696159 2.75064C0.24283 3.39369 -0.000976562 4.16092 -0.000976562 4.94719V6.97613C-0.000976562 7.60698 0.511018 8.11897 1.14187 8.11897H3.42756C4.05841 8.11897 4.57041 7.60698 4.57041 6.97613V4.69043C4.57041 4.05958 4.05917 3.54759 3.42832 3.54759Z" fill="#FF4136"/>
<path d="M10.2854 3.54759H10.0202C9.79472 3.54759 9.61872 3.3533 9.64081 3.12854L9.85186 1.0158C9.87929 0.739236 9.66215 0.5 9.38482 0.5C9.23244 0.5 9.0892 0.573904 9.00158 0.698855L7.55321 2.75064C7.09989 3.39369 6.85608 4.16092 6.85608 4.94719V6.97613C6.85608 7.60698 7.36807 8.11897 7.99892 8.11897H10.2846C10.9155 8.11897 11.4275 7.60698 11.4275 6.97613V4.69043C11.4275 4.05958 10.9162 3.54759 10.2854 3.54759Z" fill="#FF4136"/>
</svg>
