<svg width="36" height="33" viewBox="0 0 36 33" fill="none" xmlns="http://www.w3.org/2000/svg">
<path d="M24.4011 2.3315C24.2163 1.06333 23.1106 0.106934 21.8291 0.106934H13.2702C11.9886 0.106934 10.8829 1.06333 10.6982 2.33157L10.2467 5.43178H12.392L12.7989 2.63746C12.8328 2.40506 13.0353 2.22984 13.2702 2.22984H21.8291C22.0639 2.22984 22.2665 2.40513 22.3003 2.63746L22.7072 5.43171H24.8526L24.4011 2.3315Z" fill="#FF4136"/>
<path d="M31.2913 20.8921H22.101V22.1312C22.101 22.5233 21.885 22.8833 21.5391 23.0678L18.0493 24.9289C17.8932 25.0121 17.7216 25.0538 17.5498 25.0538C17.3781 25.0538 17.2063 25.0122 17.0502 24.9289L13.5604 23.0678C13.2145 22.8833 12.9985 22.5233 12.9985 22.1312V20.8921H3.80823C2.35955 20.8921 1.03112 20.3693 0 19.5034V30.8038C0 31.5221 0.584421 32.1066 1.3028 32.1066H33.7967C34.515 32.1066 35.0995 31.5222 35.0995 30.8038V19.5034C34.0683 20.3693 32.7399 20.8921 31.2913 20.8921Z" fill="#FF4136"/>
<path d="M33.7967 7.55469H1.3028C0.584421 7.55469 0 8.13918 0 8.85748V14.9613C0 17.0612 1.70836 18.7695 3.80823 18.7695H12.9985V16.9102C12.9985 16.3239 13.4738 15.8487 14.06 15.8487H21.0396C21.6258 15.8487 22.1011 16.3239 22.1011 16.9102V18.7695H31.2913C33.3912 18.7695 35.0995 17.0612 35.0995 14.9613V8.85748C35.0995 8.13918 34.5151 7.55469 33.7967 7.55469Z" fill="#FF4136"/>
<path d="M15.1217 17.9717V21.4947L17.55 22.7898L19.9783 21.4947V17.9717H15.1217Z" fill="#FF4136"/>
</svg>
