<svg width="32" height="33" viewBox="0 0 32 33" fill="none" xmlns="http://www.w3.org/2000/svg">
<path d="M28.6385 18.3448L25.7731 15.4793C25.6534 15.4844 25.5333 15.4876 25.4124 15.4876C20.7806 15.4876 17.0123 11.7193 17.0123 7.08747C17.0123 6.97134 17.0153 6.85584 17.02 6.74084L16.0174 5.73828L3.39633 18.3594V30.6269H0.0174561V32.4998H31.9826V30.6269H28.6386V18.3448H28.6385ZM9.98483 29.7714C9.98483 27.4122 11.3502 25.3663 13.3321 24.3813C12.8199 23.7739 12.5104 22.9903 12.5104 22.1354C12.5104 20.2112 14.0758 18.6457 16 18.6457C17.9242 18.6457 19.4897 20.2112 19.4897 22.1354C19.4897 22.9903 19.1802 23.7739 18.668 24.3813C20.6499 25.3663 22.0153 27.4123 22.0153 29.7714V30.6269H20.1423V29.7714C20.1423 27.4873 18.2841 25.6292 16.0001 25.6292C13.7161 25.6292 11.8579 27.4873 11.8579 29.7714V30.6269H9.98496V29.7714H9.98483Z" fill="#FF4136"/>
<path d="M16 23.7519C16.8914 23.7519 17.6167 23.0267 17.6167 22.1352C17.6167 21.2438 16.8914 20.5186 16 20.5186C15.1086 20.5186 14.3833 21.2438 14.3833 22.1352C14.3833 23.0267 15.1086 23.7519 16 23.7519Z" fill="#FF4136"/>
<path d="M0 16.5438L1.32438 17.8682L16.0174 3.17512L17.4014 4.55905C17.6051 3.91512 17.8841 3.30437 18.2286 2.73755L16.0174 0.526367L9.77962 6.76418V3.00574H4.11525V12.4285L0 16.5438Z" fill="#FF4136"/>
<path d="M27.9519 15.0949L30.6757 17.8186L32 16.4943L29.7714 14.2656C29.2053 14.6107 28.5952 14.8904 27.9519 15.0949Z" fill="#FF4136"/>
<path d="M18.8247 7.08763C18.8247 10.7201 21.7799 13.6753 25.4123 13.6753C29.0448 13.6753 32 10.7201 32 7.08763C32 3.45519 29.0448 0.5 25.4123 0.5C21.7799 0.5 18.8247 3.45519 18.8247 7.08763ZM24.8143 7.08169L27.4513 4.44475L28.7756 5.76912L24.8143 9.7305L22.049 6.96506L23.3733 5.64069L24.8143 7.08169Z" fill="#FF4136"/>
</svg>
