<svg width="17" height="17" viewBox="0 0 17 17" fill="none" xmlns="http://www.w3.org/2000/svg">
<g clip-path="url(#clip0_307_6900)">
<path d="M12.494 10.2439C12.2447 10.646 11.9723 11.0652 11.6773 11.5011C14.1586 11.8722 15.429 12.667 15.429 13.0624C15.429 13.589 13.1779 14.8232 8.81233 14.8232C4.4471 14.8232 2.19597 13.589 2.19597 13.0624C2.19597 12.667 3.46609 11.8725 5.9481 11.5011C5.65271 11.0652 5.38069 10.646 5.13099 10.2439C2.68211 10.7056 0.8125 11.6549 0.8125 13.0624C0.8125 15.127 4.83735 16.2074 8.81233 16.2074C12.788 16.2074 16.8125 15.127 16.8125 13.0624C16.8128 11.6549 14.9436 10.7056 12.494 10.2439Z" fill="#999999"/>
<path d="M8.83056 0.533508C6.23661 0.533508 4.13403 2.63608 4.13403 5.22934C4.13403 7.08988 6.54978 10.6495 7.91616 12.5139C8.12994 12.8054 8.46926 12.9777 8.83056 12.9777C9.19116 12.9777 9.53154 12.8054 9.74427 12.5139C11.1106 10.6495 13.5267 7.08988 13.5267 5.22934C13.5267 2.63608 11.4242 0.533508 8.83056 0.533508ZM8.83056 8.14518C7.29783 8.14518 6.05108 6.89842 6.05108 5.36639C6.05108 3.83402 7.29783 2.58726 8.83056 2.58726C10.3629 2.58726 11.6093 3.83402 11.6093 5.36639C11.6093 6.89842 10.3629 8.14518 8.83056 8.14518Z" fill="#999999"/>
<path d="M8.8305 3.67603C7.8983 3.67603 7.14014 4.43419 7.14014 5.36638C7.14014 6.29788 7.8983 7.0564 8.8305 7.0564C9.76234 7.0564 10.5209 6.29823 10.5209 5.36638C10.5209 4.43384 9.76234 3.67603 8.8305 3.67603Z" fill="#999999"/>
</g>
<defs>
<clipPath id="clip0_307_6900">
<rect width="16" height="16" fill="white" transform="translate(0.8125 0.3703)"/>
</clipPath>
</defs>
</svg>
