<svg width="40" height="40" viewBox="0 0 40 40" fill="none" xmlns="http://www.w3.org/2000/svg">
<path d="M26.668 16.6667L30.2503 17.7414C32.539 18.428 33.6833 18.7714 34.3423 19.657C35.0013 20.5427 35.0013 21.7375 35.0013 24.1269V36.6667" stroke="#FF4136" stroke-width="1.5" stroke-linejoin="round"/>
<path d="M13.332 15H18.332M13.332 21.6667H18.332" stroke="#FF4136" stroke-width="1.5" stroke-linecap="round" stroke-linejoin="round"/>
<path d="M20.0013 36.6666V31.6666C20.0013 30.0953 20.0013 29.3096 19.5131 28.8215C19.025 28.3333 18.2393 28.3333 16.668 28.3333H15.0013C13.43 28.3333 12.6443 28.3333 12.1561 28.8215C11.668 29.3096 11.668 30.0953 11.668 31.6666V36.6666" stroke="#FF4136" stroke-width="1.5" stroke-linejoin="round"/>
<path d="M3.33203 36.6667H36.6654" stroke="#FF4136" stroke-width="1.5" stroke-linecap="round"/>
<path d="M5 36.6666V11.1954C5 7.0108 5 4.9185 6.31863 3.88038C7.63728 2.84227 9.57903 3.4059 13.4625 4.53315L21.7958 6.95202C24.1393 7.63227 25.3112 7.97238 25.9888 8.8994C26.6667 9.82643 26.6667 11.0891 26.6667 13.6143V36.6666" stroke="#FF4136" stroke-width="1.5" stroke-linecap="round" stroke-linejoin="round"/>
</svg>
