<svg width="21" height="19" viewBox="0 0 21 19" fill="none" xmlns="http://www.w3.org/2000/svg">
<path d="M5.86206 7.01736L10.3521 3.00337C11.57 1.91466 12.179 1.3703 12.9209 1.3703C13.6628 1.3703 14.2718 1.91466 15.4896 3.00337L19.9797 7.01736" stroke="white" stroke-width="1.5" stroke-linecap="round" stroke-linejoin="round"/>
<path d="M7.27393 6.07617V17.3703M18.568 17.3703V6.07617" stroke="white" stroke-width="1.5" stroke-linecap="round" stroke-linejoin="round"/>
<path d="M2.56801 11.7233C3.34771 11.7233 3.97978 10.8805 3.97978 9.84091C3.97978 8.80132 3.34771 7.95856 2.56801 7.95856C1.78832 7.95856 1.15625 8.80132 1.15625 9.84091C1.15625 10.8805 1.78832 11.7233 2.56801 11.7233Z" stroke="white" stroke-width="1.5"/>
<path d="M2.56812 11.7233V17.3703" stroke="white" stroke-width="1.5" stroke-linecap="round"/>
<path d="M1.15625 17.3703H19.9798" stroke="white" stroke-width="1.5" stroke-linecap="round" stroke-linejoin="round"/>
<path d="M10.5681 17.3703V13.6053C10.5681 12.7182 10.5681 12.2746 10.8438 11.9989C11.1195 11.7233 11.5631 11.7233 12.4505 11.7233H13.3916C14.279 11.7233 14.7227 11.7233 14.9983 11.9989C15.274 12.2746 15.274 12.7183 15.274 13.6056V17.3703" stroke="white" stroke-width="1.5" stroke-linecap="round" stroke-linejoin="round"/>
<path d="M11.9797 8.8997H13.8621M11.9797 6.07617H13.8621" stroke="white" stroke-width="1.5" stroke-linecap="round" stroke-linejoin="round"/>
</svg>
