<svg width="17" height="17" viewBox="0 0 17 17" fill="none" xmlns="http://www.w3.org/2000/svg">
<path d="M0.915771 15.7036V16.0369C0.915771 16.221 1.06502 16.3702 1.24911 16.3702H16.5824C16.7665 16.3702 16.9158 16.221 16.9158 16.0369V15.7036H0.915771V15.7036Z" fill="white"/>
<path d="M7.2492 6.3703H1.91586C1.73177 6.3703 1.58252 6.51955 1.58252 6.70364V16.037C1.58252 16.221 1.73177 16.3703 1.91586 16.3703H7.2492C7.43329 16.3703 7.58254 16.221 7.58254 16.0369V6.70364C7.58251 6.51955 7.43329 6.3703 7.2492 6.3703ZM6.91585 15.7036H2.24921V7.03696H6.91585V15.7036Z" fill="white"/>
<path d="M15.9157 2.3703H10.5824C10.3983 2.3703 10.249 2.51955 10.249 2.70364V16.037C10.249 16.2211 10.3983 16.3703 10.5824 16.3703H15.9157C16.0998 16.3703 16.249 16.2211 16.249 16.037V2.70364C16.249 2.51955 16.0998 2.3703 15.9157 2.3703ZM15.5824 15.7036H10.9157V3.03696H15.5824V15.7036Z" fill="white"/>
<path d="M13.5823 0.3703H4.58237C4.39827 0.3703 4.24902 0.51955 4.24902 0.703643V5.70363H4.91571V1.03696H13.249V1.70361H13.9157V0.703612C13.9157 0.51955 13.7664 0.3703 13.5823 0.3703Z" fill="white"/>
<path d="M3.58243 7.70361H2.91577V13.7036H3.58243V7.70361Z" fill="white"/>
<path d="M4.91568 7.70361H4.24902V13.7036H4.91568V7.70361Z" fill="white"/>
<path d="M6.24917 7.70361H5.58252V13.7036H6.24917V7.70361Z" fill="white"/>
<path d="M14.2492 4.03699H10.5825V4.70364H14.2492V4.03699Z" fill="white"/>
<path d="M14.2492 5.70361H10.5825V6.37027H14.2492V5.70361Z" fill="white"/>
<path d="M14.2492 7.3703H10.5825V8.03695H14.2492V7.3703Z" fill="white"/>
<path d="M14.2492 9.03699H10.5825V9.70364H14.2492V9.03699Z" fill="white"/>
<path d="M14.2492 10.7036H10.5825V11.3703H14.2492V10.7036Z" fill="white"/>
<path d="M14.2492 12.3703H10.5825V13.037H14.2492V12.3703Z" fill="white"/>
<path d="M6.58243 2.03699H5.91577V3.03699H6.58243V2.03699Z" fill="white"/>
<path d="M6.58243 4.03699H5.91577V5.03699H6.58243V4.03699Z" fill="white"/>
<path d="M7.91568 4.03699H7.24902V5.03699H7.91568V4.03699Z" fill="white"/>
<path d="M7.91568 2.03699H7.24902V3.03699H7.91568V2.03699Z" fill="white"/>
<path d="M9.24917 2.03699H8.58252V3.03699H9.24917V2.03699Z" fill="white"/>
<path d="M9.24917 4.03699H8.58252V5.03699H9.24917V4.03699Z" fill="white"/>
<path d="M9.24917 6.03699H8.58252V7.03699H9.24917V6.03699Z" fill="white"/>
<path d="M9.24917 8.03699H8.58252V9.03699H9.24917V8.03699Z" fill="white"/>
<path d="M9.24917 10.037H8.58252V11.037H9.24917V10.037Z" fill="white"/>
<path d="M9.24917 12.037H8.58252V13.037H9.24917V12.037Z" fill="white"/>
<path d="M13.5825 14.037H11.9159C11.7318 14.037 11.5825 14.1862 11.5825 14.3703V16.037H12.2492V14.7036H13.2492V16.037H13.9159V14.3703C13.9159 14.1862 13.7666 14.037 13.5825 14.037Z" fill="white"/>
<path d="M5.91577 14.3703H3.24911C3.06502 14.3703 2.91577 14.5195 2.91577 14.7036V16.037H3.58243V15.037H5.58242V16.037H6.24908V14.7036C6.24911 14.5195 6.09986 14.3703 5.91577 14.3703Z" fill="white"/>
</svg>
