<svg width="21" height="17" viewBox="0 0 21 17" fill="none" xmlns="http://www.w3.org/2000/svg">
<path d="M19.8921 2.66626L14.8662 0.397764C14.785 0.361146 14.692 0.361146 14.6109 0.397764L12.948 1.14833V1.03805C12.948 0.866668 12.809 0.72772 12.6376 0.72772H11.3562C11.1848 0.72772 11.0459 0.866668 11.0459 1.03805V2.00685L10.536 2.237L6.46117 0.397764C6.38002 0.361146 6.287 0.361146 6.20585 0.397764L4.54296 1.14833V1.03805C4.54296 0.866668 4.40401 0.72772 4.23263 0.72772H2.95118C2.7798 0.72772 2.64085 0.866668 2.64085 1.03805V2.00685L1.17991 2.66626C0.985526 2.754 0.881178 2.96114 0.926137 3.16999C0.971095 3.37884 1.15143 3.5247 1.36467 3.5247H1.82065V8.26122H1.42053C1.24915 8.26122 1.1102 8.40017 1.1102 8.57155V9.63717C1.1102 9.80855 1.24915 9.9475 1.42053 9.9475H1.82065V14.684H1.42053C1.24915 14.684 1.1102 14.823 1.1102 14.9943V16.06C1.1102 16.2314 1.24915 16.3703 1.42053 16.3703H19.6514C19.8228 16.3703 19.9618 16.2314 19.9618 16.06V14.9943C19.9618 14.823 19.8228 14.684 19.6514 14.684H19.2513V9.94758H19.6514C19.8228 9.94758 19.9618 9.80863 19.9618 9.63725V8.57162C19.9618 8.40025 19.8228 8.2613 19.6514 8.2613H19.2513V3.52474H19.7073C19.9206 3.52474 20.1009 3.37884 20.1459 3.16999C20.1908 2.96114 20.0864 2.754 19.8921 2.66626ZM11.6665 1.34837H12.3273V1.42848L11.6665 1.72674V1.34837ZM3.2615 1.34837H3.92231V1.42848L3.2615 1.72674V1.34837ZM2.15895 2.90532L6.33355 1.0211L10.2257 2.77786V8.26126H2.44131V3.21441C2.44131 3.05242 2.31726 2.91944 2.15895 2.90532ZM1.73085 8.88191H10.2257V9.32688H1.73085V8.88191ZM2.44131 9.94758H10.2257V14.6841H8.04326V11.9028C8.04326 11.7314 7.90431 11.5925 7.73293 11.5925H4.93409C4.76271 11.5925 4.62376 11.7314 4.62376 11.9028V14.6841H2.44131V9.94758ZM5.24442 14.6841V12.2131H7.4226V14.6841H5.24442ZM19.3411 15.7497H1.73085V15.3048H19.3411V15.7497ZM15.8276 14.6841H13.6494V12.2131H15.8276V14.6841ZM18.6306 14.6841H16.4482V11.9028C16.4482 11.7314 16.3093 11.5925 16.1379 11.5925H13.3391C13.1677 11.5925 13.0288 11.7314 13.0288 11.9028V14.6841H10.8463V9.94758H18.6306V14.6841ZM19.3411 9.32692H10.8463V8.88195H19.3411V9.32692ZM10.8463 8.26126V2.77786L14.7385 1.0211L18.9131 2.90532C18.7548 2.91944 18.6307 3.05242 18.6307 3.21441V8.26126H10.8463ZM4.48609 7.34095H8.18092C8.3523 7.34095 8.49125 7.202 8.49125 7.03062V4.96838C8.49125 3.77862 7.5233 2.81064 6.33351 2.81064C5.14375 2.81064 4.17577 3.77858 4.17577 4.96838V7.03062C4.17577 7.20204 4.31468 7.34095 4.48609 7.34095ZM4.79642 5.38616H6.02318V6.72029H4.79642V5.38616ZM6.6438 6.72029V5.38616H7.87056V6.72029H6.6438ZM7.85675 4.7655H6.6438V3.46283C7.27818 3.5934 7.77071 4.11618 7.85675 4.7655ZM6.02314 3.46283V4.7655H4.81019C4.89627 4.11618 5.38876 3.5934 6.02314 3.46283ZM14.7385 2.81067C13.5487 2.81067 12.5807 3.77862 12.5807 4.96842V7.03066C12.5807 7.20204 12.7197 7.34098 12.8911 7.34098H16.5859C16.7573 7.34098 16.8962 7.20204 16.8962 7.03066V4.96842C16.8962 3.77862 15.9282 2.81067 14.7385 2.81067ZM16.2618 4.7655H15.0488V3.46283C15.6832 3.5934 16.1757 4.11618 16.2618 4.7655ZM14.4282 3.46283V4.7655H13.2152C13.3013 4.11618 13.7938 3.5934 14.4282 3.46283ZM13.2014 5.38616H14.4282V6.72029H13.2014V5.38616ZM15.0488 6.72029V5.38616H16.2756V6.72029H15.0488Z" fill="white"/>
</svg>
