<svg width="15" height="17" viewBox="0 0 15 17" fill="none" xmlns="http://www.w3.org/2000/svg">
<path d="M14.7118 3.19287L7.15472 0.389811C7.05878 0.354217 6.95156 0.367874 6.86759 0.42628C6.78359 0.484686 6.73353 0.58053 6.73353 0.682811V4.52853L0.608721 7.24912C0.495846 7.29924 0.423096 7.41118 0.423096 7.53471V16.0578C0.423096 16.2304 0.563002 16.3703 0.735595 16.3703H14.6032C14.7758 16.3703 14.9157 16.2304 14.9157 16.0578V3.48587C14.9157 3.35518 14.8344 3.23831 14.7118 3.19287ZM1.0481 14.5345H6.73353V15.7453H1.0481V14.5345ZM5.042 13.9095H2.73959V12.0592H5.042V13.9095ZM10.0185 15.7453V12.8559H11.6307V15.7453H10.0185ZM14.2907 15.7453H13.6071V13.9271C13.6071 13.7545 13.4672 13.6146 13.2946 13.6146C13.122 13.6146 12.9821 13.7545 12.9821 13.9271V15.7453H12.2557V12.5434C12.2557 12.3708 12.1158 12.2309 11.9432 12.2309H9.70596C9.53337 12.2309 9.39346 12.3708 9.39346 12.5434V15.7453H8.667V13.9271C8.667 13.7545 8.52709 13.6146 8.3545 13.6146C8.1819 13.6146 8.042 13.7545 8.042 13.9271V15.7453H7.35853V11.0214C7.35853 10.8488 7.21862 10.7089 7.04603 10.7089C6.87343 10.7089 6.73353 10.8488 6.73353 11.0214V13.9095H5.66703V11.7467C5.66703 11.5741 5.52712 11.4342 5.35453 11.4342H2.42709C2.2545 11.4342 2.11459 11.5741 2.11459 11.7467V13.9095H1.0481V7.73784L6.73353 5.21243V8.19599C6.73353 8.36859 6.87343 8.50849 7.04603 8.50849C7.21862 8.50849 7.35853 8.36859 7.35853 8.19599V1.13203L14.2907 3.70325V15.7453Z" fill="white"/>
<path d="M7.04587 9.92687C6.91559 9.92687 6.79559 9.8424 6.75196 9.71962C6.70837 9.59694 6.7464 9.45559 6.84762 9.37287C6.95024 9.28903 7.09818 9.27953 7.21074 9.34919C7.32246 9.41831 7.37958 9.55444 7.35071 9.68259C7.31905 9.8234 7.19046 9.92687 7.04587 9.92687Z" fill="white"/>
<path d="M5.35459 10.5412H2.42725C2.25465 10.5412 2.11475 10.4013 2.11475 10.2287V8.4949C2.11475 8.36915 2.19012 8.25565 2.30606 8.20687L4.25481 7.38683C4.29318 7.37068 4.33437 7.36237 4.37599 7.36237H5.35456C5.52715 7.36237 5.66706 7.50227 5.66706 7.67487V10.2287C5.66709 10.4013 5.52718 10.5412 5.35459 10.5412ZM2.73975 9.91624H5.04206V7.98737H4.43906L2.73975 8.70243V9.91624Z" fill="white"/>
<path d="M13.2946 7.16575H11.5735C11.4009 7.16575 11.261 7.02584 11.261 6.85325V4.71578C11.261 4.6135 11.311 4.51765 11.395 4.45925C11.479 4.40081 11.5863 4.38718 11.6822 4.42278L13.4033 5.06125C13.5259 5.10668 13.6071 5.22356 13.6071 5.35425V6.85325C13.6071 7.02584 13.4672 7.16575 13.2946 7.16575ZM11.886 6.54075H12.9821V5.57162L11.886 5.165V6.54075Z" fill="white"/>
<path d="M10.0759 7.16578H8.35449C8.1819 7.16578 8.04199 7.02588 8.04199 6.85328V3.63135C8.04199 3.45875 8.1819 3.31885 8.35449 3.31885H8.64968C8.68677 3.31885 8.72355 3.32544 8.75834 3.33835L10.1846 3.86719C10.3071 3.91263 10.3884 4.0295 10.3884 4.16019V6.85328C10.3884 7.02588 10.2485 7.16578 10.0759 7.16578ZM8.66699 6.54078H9.7634V4.3776L8.66699 3.97103V6.54078Z" fill="white"/>
<path d="M13.2948 11.209H11.5735C11.4009 11.209 11.261 11.0691 11.261 10.8965V8.29773C11.261 8.12514 11.4009 7.98523 11.5735 7.98523H13.2948C13.4674 7.98523 13.6073 8.12514 13.6073 8.29773V10.8965C13.6073 11.0691 13.4674 11.209 13.2948 11.209ZM11.886 10.584H12.9824V8.61023H11.886V10.584Z" fill="white"/>
<path d="M10.0758 11.209H8.35449C8.1819 11.209 8.04199 11.0691 8.04199 10.8965V8.29773C8.04199 8.12514 8.1819 7.98523 8.35449 7.98523H10.0758C10.2484 7.98523 10.3883 8.12514 10.3883 8.29773V10.8965C10.3883 11.0691 10.2484 11.209 10.0758 11.209ZM8.66696 10.584H9.76327V8.61023H8.66696V10.584Z" fill="white"/>
</svg>
