<svg width="24" height="24" viewBox="0 0 24 24" fill="none" xmlns="http://www.w3.org/2000/svg">
<g clip-path="url(#clip0_461_11469)">
<path d="M23.6 13.6001H0.399984C0.178781 13.6001 0 13.7789 0 14.0001V18.8001C0 19.0213 0.178781 19.2001 0.399984 19.2001H23.6C23.8212 19.2001 24 19.0213 24 18.8001V14.0001C24 13.7789 23.8212 13.6001 23.6 13.6001ZM23.2 18.4001H0.800016V14.4001H2.00002L1.99959 15.2001C1.99959 15.4209 2.17838 15.6001 2.39958 15.6001C2.62036 15.6001 2.79956 15.4213 2.79956 15.2001L2.79998 14.4001H4.39997V16.0001C4.39997 16.2213 4.57875 16.4001 4.79995 16.4001C5.02116 16.4001 5.19994 16.2213 5.19994 16.0001V14.4001H6.79992V15.2001C6.79992 15.4213 6.9787 15.6001 7.19991 15.6001C7.42111 15.6001 7.59989 15.4213 7.59989 15.2001V14.4001H9.19987V16.0001C9.19987 16.2213 9.37866 16.4001 9.59986 16.4001C9.82106 16.4001 9.99984 16.2213 9.99984 16.0001V14.4001H11.5998V15.2001C11.5998 15.4213 11.7786 15.6001 11.9998 15.6001C12.221 15.6001 12.3998 15.4213 12.3998 15.2001V14.4001H13.9998V16.0001C13.9998 16.2213 14.1786 16.4001 14.3998 16.4001C14.621 16.4001 14.7997 16.2213 14.7997 16.0001V14.4001H16.3997V15.2001C16.3997 15.4213 16.5785 15.6001 16.7997 15.6001C17.0209 15.6001 17.1997 15.4213 17.1997 15.2001V14.4001H18.7997V16.0001C18.7997 16.2213 18.9785 16.4001 19.1997 16.4001C19.4209 16.4001 19.5997 16.2213 19.5997 16.0001V14.4001H21.2004L21.2 15.2001C21.2 15.4209 21.3788 15.6001 21.6 15.6001C21.8208 15.6001 22 15.4213 22 15.2001L22.0004 14.4001H23.1996V18.4001H23.2Z" fill="#554B4B"/>
<path d="M0.399984 4.80005C0.178781 4.80005 0 4.97883 0 5.20003V12C0 12.2213 0.178781 12.4 0.399984 12.4C0.621188 12.4 0.799969 12.2213 0.799969 12V8.80003V5.20003C0.800016 4.97883 0.621188 4.80005 0.399984 4.80005Z" fill="#554B4B"/>
<path d="M23.5992 4.80005C23.378 4.80005 23.1992 4.97883 23.1992 5.20003V8.80003V12C23.1992 12.2213 23.378 12.4 23.5992 12.4C23.8204 12.4 23.9992 12.2213 23.9992 12V5.20003C23.9992 4.97883 23.8204 4.80005 23.5992 4.80005Z" fill="#554B4B"/>
<path d="M22.3136 8.54367L20.4564 6.14367C20.356 6.01406 20.1912 5.96728 20.0444 6.02367C19.8976 6.08128 19.7996 6.23165 19.7996 6.40008V8.40009H4.19958V6.3997C4.19958 6.23128 4.10156 6.0809 3.9548 6.02372C3.80798 5.96653 3.64359 6.01373 3.54281 6.14372L1.68563 8.54409C1.62844 8.61811 1.59961 8.70928 1.59961 8.80008C1.59961 8.89087 1.62839 8.98209 1.68563 9.05648L3.54281 11.4565C3.61481 11.5493 3.72 11.6001 3.828 11.6001C3.87042 11.6001 3.91322 11.592 3.95442 11.5761C4.10123 11.5185 4.1992 11.3681 4.1992 11.2001V9.20006H19.7992V11.2001C19.7992 11.3685 19.8972 11.5189 20.044 11.5761C20.0852 11.592 20.128 11.6001 20.1704 11.6001C20.2784 11.6001 20.3836 11.5492 20.456 11.4565L22.3132 9.05648C22.3708 8.98209 22.3996 8.89129 22.3996 8.80008C22.3996 8.70886 22.3708 8.61811 22.3136 8.54367ZM3.4568 10.0953L2.45438 8.80008L3.4568 7.50487V10.0953ZM20.5424 10.0953V7.50487L21.5448 8.80008L20.5424 10.0953Z" fill="#554B4B"/>
</g>
<defs>
<clipPath id="clip0_461_11469">
<rect width="24" height="24" fill="white"/>
</clipPath>
</defs>
</svg>
