<svg width="24" height="24" viewBox="0 0 24 24" fill="none" xmlns="http://www.w3.org/2000/svg">
<path d="M6.34917 15.3501L5.32617 14.3151C6.21551 13.4184 7.23417 12.7318 8.38217 12.2551C9.53017 11.7771 10.7352 11.5381 11.9972 11.5381C13.2598 11.5381 14.4658 11.7791 15.6152 12.2611C16.7645 12.7424 17.7835 13.4311 18.6722 14.3271L17.6492 15.3501C16.8992 14.6001 16.0368 14.0211 15.0622 13.6131C14.0875 13.2051 13.0665 13.0008 11.9992 13.0001C10.9325 13.0001 9.91184 13.2044 8.93717 13.6131C7.9625 14.0218 7.09984 14.6008 6.34917 15.3501ZM2.09917 11.1001L1.07617 10.0771C2.53151 8.61444 4.2015 7.49211 6.08617 6.71011C7.97151 5.92811 9.94384 5.53711 12.0032 5.53711C14.0618 5.53711 16.0325 5.92811 17.9152 6.71011C19.7978 7.49144 21.4668 8.61344 22.9222 10.0761L21.8992 11.1001C20.5825 9.78344 19.0702 8.77111 17.3622 8.06311C15.6542 7.35511 13.8665 7.00078 11.9992 7.00011C10.1325 7.00011 8.34484 7.35444 6.63617 8.06311C4.92751 8.77178 3.41517 9.78411 2.09917 11.1001ZM11.9992 21.0001L9.55117 18.5461C9.87517 18.2221 10.2482 17.9731 10.6702 17.7991C11.0922 17.6258 11.5345 17.5391 11.9972 17.5391C12.4598 17.5391 12.9028 17.6258 13.3262 17.7991C13.7488 17.9724 14.1225 18.2214 14.4472 18.5461L11.9992 21.0001Z" fill="#554B4B"/>
</svg>
