<svg width="24" height="24" viewBox="0 0 24 24" fill="none" xmlns="http://www.w3.org/2000/svg">
<path fill-rule="evenodd" clip-rule="evenodd" d="M19.5899 13.227L12.2864 20.532C12.0067 20.8117 11.6278 20.9695 11.2323 20.9712C10.8368 20.9729 10.4565 20.8183 10.1744 20.541L3.49945 13.986C3.21584 13.7071 3.05462 13.327 3.05125 12.9292C3.04787 12.5315 3.20262 12.1487 3.48145 11.865L10.7834 4.425C10.9927 4.2115 11.2424 4.04185 11.518 3.92596C11.7936 3.81006 12.0895 3.75024 12.3884 3.75H18.7499C19.1478 3.75 19.5293 3.90804 19.8106 4.18934C20.0919 4.47064 20.2499 4.85218 20.2499 5.25V11.6355C20.2499 11.9311 20.1916 12.2238 20.0783 12.4969C19.9651 12.77 19.7991 13.0181 19.5899 13.227ZM9.17695 2.847C9.59591 2.42037 10.0957 2.08152 10.6471 1.85024C11.1985 1.61896 11.7905 1.49989 12.3884 1.5H18.7499C19.7445 1.5 20.6983 1.89509 21.4016 2.59835C22.1049 3.30161 22.4999 4.25544 22.4999 5.25V11.6355C22.5 12.2267 22.3836 12.812 22.1574 13.3582C21.9311 13.9043 21.5995 14.4006 21.1814 14.8185L13.8764 22.1235C13.1772 22.8222 12.2303 23.2166 11.2418 23.2208C10.2533 23.225 9.30314 22.8387 8.59795 22.146L1.92295 15.591C1.21353 14.8942 0.809937 13.9441 0.800935 12.9497C0.791934 11.9553 1.17826 10.9981 1.87495 10.2885L9.17695 2.85V2.847ZM15.7499 9.75C15.2527 9.75 14.7758 9.55246 14.4241 9.20083C14.0725 8.84919 13.8749 8.37228 13.8749 7.875C13.8749 7.37772 14.0725 6.90081 14.4241 6.54917C14.7758 6.19754 15.2527 6 15.7499 6C16.2472 6 16.7241 6.19754 17.0758 6.54917C17.4274 6.90081 17.6249 7.37772 17.6249 7.875C17.6249 8.37228 17.4274 8.84919 17.0758 9.20083C16.7241 9.55246 16.2472 9.75 15.7499 9.75Z" fill="#554B4B"/>
</svg>
