<svg width="22" height="24" viewBox="0 0 22 24" fill="none" xmlns="http://www.w3.org/2000/svg">
<path d="M15.25 2.25C15.25 1.85218 15.408 1.47064 15.6893 1.18934C15.9706 0.908035 16.3522 0.75 16.75 0.75H19.75C20.1478 0.75 20.5294 0.908035 20.8107 1.18934C21.092 1.47064 21.25 1.85218 21.25 2.25V6.75C21.25 7.14782 21.092 7.52936 20.8107 7.81066C20.5294 8.09196 20.1478 8.25 19.75 8.25H19V22.5C19 22.6989 18.921 22.8897 18.7803 23.0303C18.6397 23.171 18.4489 23.25 18.25 23.25C18.0511 23.25 17.8603 23.171 17.7197 23.0303C17.579 22.8897 17.5 22.6989 17.5 22.5V8.25H16.75C16.3522 8.25 15.9706 8.09196 15.6893 7.81066C15.408 7.52936 15.25 7.14782 15.25 6.75V2.25ZM14.125 2.25H5.80525C5.12267 2.24995 4.46048 2.48267 3.92801 2.90973C3.39554 3.3368 3.02462 3.93269 2.8765 4.599L2.398 6.75H1.75C1.55109 6.75 1.36032 6.82902 1.21967 6.96967C1.07902 7.11032 1 7.30109 1 7.5C1 7.69891 1.07902 7.88968 1.21967 8.03033C1.36032 8.17098 1.55109 8.25 1.75 8.25H2.065L1.8175 9.36375C1.34322 9.6215 0.947268 10.0024 0.671392 10.4664C0.395516 10.9304 0.249936 11.4602 0.25 12V19.5C0.25 20.0967 0.487053 20.669 0.90901 21.091C1.33097 21.5129 1.90326 21.75 2.5 21.75H3.25C3.84674 21.75 4.41903 21.5129 4.84099 21.091C5.26295 20.669 5.5 20.0967 5.5 19.5V18.75H14.5V19.5C14.4998 20.0318 14.6881 20.5466 15.0313 20.9528C15.3745 21.3591 15.8506 21.6306 16.375 21.7192V20.1495C16.261 20.0837 16.1663 19.989 16.1005 19.875C16.0347 19.761 16 19.6316 16 19.5V18.75H16.375V17.25H1.75V12C1.75 11.6022 1.90804 11.2206 2.18934 10.9393C2.47064 10.658 2.85218 10.5 3.25 10.5H16.375V9.34875C16.0289 9.29917 15.6964 9.18058 15.397 9H3.4345L4.3405 4.9245C4.41455 4.59141 4.59995 4.29351 4.86611 4.07998C5.13227 3.86646 5.46327 3.75006 5.8045 3.75H14.125V2.25ZM1.75 19.5V18.75H4V19.5C4 19.6989 3.92098 19.8897 3.78033 20.0303C3.63968 20.171 3.44891 20.25 3.25 20.25H2.5C2.30109 20.25 2.11032 20.171 1.96967 20.0303C1.82902 19.8897 1.75 19.6989 1.75 19.5ZM7.375 15C7.375 14.8011 7.45402 14.6103 7.59467 14.4697C7.73532 14.329 7.92609 14.25 8.125 14.25H11.875C12.0739 14.25 12.2647 14.329 12.4053 14.4697C12.546 14.6103 12.625 14.8011 12.625 15C12.625 15.1989 12.546 15.3897 12.4053 15.5303C12.2647 15.671 12.0739 15.75 11.875 15.75H8.125C7.92609 15.75 7.73532 15.671 7.59467 15.5303C7.45402 15.3897 7.375 15.1989 7.375 15ZM5.125 14.25C5.42337 14.25 5.70952 14.1315 5.9205 13.9205C6.13147 13.7095 6.25 13.4234 6.25 13.125C6.25 12.8266 6.13147 12.5405 5.9205 12.3295C5.70952 12.1185 5.42337 12 5.125 12C4.82663 12 4.54048 12.1185 4.3295 12.3295C4.11853 12.5405 4 12.8266 4 13.125C4 13.4234 4.11853 13.7095 4.3295 13.9205C4.54048 14.1315 4.82663 14.25 5.125 14.25ZM16 13.125C16 13.4234 15.8815 13.7095 15.6705 13.9205C15.4595 14.1315 15.1734 14.25 14.875 14.25C14.5766 14.25 14.2905 14.1315 14.0795 13.9205C13.8685 13.7095 13.75 13.4234 13.75 13.125C13.75 12.8266 13.8685 12.5405 14.0795 12.3295C14.2905 12.1185 14.5766 12 14.875 12C15.1734 12 15.4595 12.1185 15.6705 12.3295C15.8815 12.5405 16 12.8266 16 13.125Z" fill="#554B4B"/>
</svg>
