<svg width="24" height="24" viewBox="0 0 24 24" fill="none" xmlns="http://www.w3.org/2000/svg">
<path d="M18.9748 20.1413H6.50984C4.00484 20.1413 1.96484 18.1013 1.96484 15.5963V11.8201C1.96484 11.6138 2.13359 11.4451 2.33984 11.4451H6.11984C7.35359 11.4451 8.56859 11.8613 9.54359 12.6151L10.2036 13.1288C10.7361 13.5413 11.3998 13.7701 12.0748 13.7701H21.8323C22.0386 13.7701 22.2073 13.9388 22.2073 14.1451V16.9126C22.2073 18.6901 20.7598 20.1413 18.9748 20.1413ZM2.71484 12.1951V15.5963C2.71484 17.6888 4.41734 19.3913 6.50984 19.3913H18.9748C20.3436 19.3913 21.4573 18.2776 21.4573 16.9088V14.5163H12.0748C11.2348 14.5163 10.4098 14.2351 9.74609 13.7213L9.08609 13.2076C8.24234 12.5551 7.18859 12.1913 6.11984 12.1913H2.71484V12.1951Z" fill="#554B4B"/>
<path d="M22.5403 14.5239H21.8316C21.6253 14.5239 21.4566 14.3551 21.4566 14.1489C21.4566 13.9426 21.6253 13.7739 21.8316 13.7739H22.5403C22.6341 13.7739 22.7128 13.6989 22.7128 13.6014V13.4064C22.7128 13.3126 22.6378 13.2376 22.5441 13.2339L12.1978 13.2151C11.2866 13.1401 10.8703 12.7914 10.3416 12.3489C10.2516 12.2739 10.1541 12.1914 10.0528 12.1089C8.43656 10.8076 6.48281 10.8114 6.46406 10.8189H1.54406C1.40156 10.8189 1.28906 10.9351 1.28906 11.0739V11.1864C1.28906 11.3289 1.40531 11.4414 1.54406 11.4414H2.33906C2.54531 11.4414 2.71406 11.6101 2.71406 11.8164C2.71406 12.0226 2.54531 12.1914 2.33906 12.1914H1.54406C0.989062 12.1914 0.539062 11.7414 0.539062 11.1864V11.0739C0.539062 10.5189 0.989062 10.0689 1.54406 10.0689H6.45656C6.54281 10.0689 8.68781 10.0464 10.5216 11.5276C10.6303 11.6139 10.7278 11.6964 10.8216 11.7751C11.3128 12.1876 11.5828 12.4164 12.2278 12.4689L22.5478 12.4839C23.0541 12.4914 23.4628 12.9039 23.4628 13.4064V13.6014C23.4591 14.1076 23.0466 14.5239 22.5403 14.5239Z" fill="#554B4B"/>
<path d="M3.89983 20.9551C3.72733 20.9551 3.55108 20.9063 3.39733 20.8051C3.08233 20.6026 2.92483 20.2426 2.98858 19.8751L3.22108 18.5138C3.25483 18.3113 3.44608 18.1763 3.65233 18.2063C3.85483 18.2401 3.99358 18.4351 3.95983 18.6376L3.72733 19.9988C3.70858 20.1001 3.77608 20.1563 3.80608 20.1751C3.83608 20.1938 3.91108 20.2313 3.99733 20.1751L5.26858 19.3276C5.44108 19.2113 5.67358 19.2601 5.78983 19.4326C5.90608 19.6051 5.85733 19.8376 5.68483 19.9538L4.41358 20.8013C4.25608 20.9026 4.07608 20.9551 3.89983 20.9551Z" fill="#554B4B"/>
<path d="M20.8464 20.9251C20.6326 20.9251 20.4226 20.8501 20.2501 20.7038L19.3951 19.9726C19.2376 19.8376 19.2189 19.6013 19.3539 19.4438C19.4889 19.2863 19.7251 19.2676 19.8826 19.4026L20.7376 20.1338C20.8164 20.1976 20.8951 20.1751 20.9251 20.1601C20.9551 20.1451 21.0264 20.1038 21.0264 20.0026V18.4238C21.0264 18.2176 21.1951 18.0488 21.4014 18.0488C21.6076 18.0488 21.7764 18.2176 21.7764 18.4238V20.0026C21.7764 20.3663 21.5701 20.6888 21.2401 20.8426C21.1126 20.8951 20.9776 20.9251 20.8464 20.9251Z" fill="#554B4B"/>
<path d="M3.34961 9.26992C3.14336 9.26992 2.97461 9.10117 2.97461 8.89492V7.09492C2.97461 4.86367 4.78961 3.04492 7.02461 3.04492H8.65211C9.84836 3.04492 10.8646 3.85867 11.1234 5.02492L11.1721 5.23492C11.2171 5.43742 11.0896 5.63617 10.8871 5.68117C10.6846 5.72617 10.4859 5.59867 10.4409 5.39617L10.3921 5.18617C10.2084 4.36492 9.49211 3.79117 8.65211 3.79117H7.02461C5.20586 3.79117 3.72461 5.27242 3.72461 7.09117V8.89117C3.72461 9.10117 3.55586 9.26992 3.34961 9.26992Z" fill="#554B4B"/>
<path d="M9.37834 7.30886C9.27709 7.30886 9.17959 7.26761 9.10834 7.19261C9.01834 7.09886 8.98459 6.96761 9.01459 6.84386L9.30334 5.67011C9.33709 5.53511 9.44209 5.43011 9.57709 5.39636L11.7258 4.86011C11.8683 4.82261 12.0183 4.87511 12.1121 4.99136L12.9371 6.03011C13.0196 6.13136 13.0421 6.27011 12.9971 6.39011C12.9521 6.51386 12.8471 6.60386 12.7196 6.63011L9.45709 7.30511C9.43084 7.30511 9.40459 7.30886 9.37834 7.30886ZM9.97459 6.06761L9.88084 6.44636L11.9621 6.01511L11.6658 5.64386L9.97459 6.06761Z" fill="#554B4B"/>
<path d="M10.2676 9.08242C10.0613 9.08242 9.89258 8.91367 9.89258 8.70742V8.01367C9.89258 7.80742 10.0613 7.63867 10.2676 7.63867C10.4738 7.63867 10.6426 7.80742 10.6426 8.01367V8.70742C10.6426 8.91367 10.4738 9.08242 10.2676 9.08242Z" fill="#554B4B"/>
<path d="M11.8423 10.6951C11.6623 10.6951 11.5011 10.5638 11.4711 10.3801L11.3586 9.68631C11.3248 9.48381 11.4636 9.28881 11.6698 9.25506C11.8761 9.22131 12.0673 9.36006 12.1011 9.56631L12.2136 10.2601C12.2473 10.4626 12.1086 10.6576 11.9023 10.6913C11.8798 10.6913 11.8611 10.6951 11.8423 10.6951Z" fill="#554B4B"/>
<path d="M12.4417 8.47119C12.3142 8.47119 12.1904 8.40744 12.1229 8.29119L11.9129 7.94619C11.8042 7.76994 11.8604 7.53744 12.0367 7.43244C12.2129 7.32369 12.4454 7.37994 12.5504 7.55619L12.7604 7.90119C12.8692 8.07744 12.8129 8.30994 12.6367 8.41494C12.5729 8.45244 12.5054 8.47119 12.4417 8.47119Z" fill="#554B4B"/>
<path d="M21.8328 11.7375H17.7266C17.5203 11.7375 17.3516 11.5688 17.3516 11.3625C17.3516 11.1563 17.5203 10.9875 17.7266 10.9875H21.8366C22.0428 10.9875 22.2116 11.1563 22.2116 11.3625C22.2116 11.5688 22.0391 11.7375 21.8328 11.7375Z" fill="#554B4B"/>
</svg>
