<svg width="24" height="24" viewBox="0 0 24 24" fill="none" xmlns="http://www.w3.org/2000/svg">
<path d="M5.692 19V9.946L2.604 12.25L2 11.458L12 4L16.346 7.223V5H18.231V8.638L22.019 11.458L21.415 12.25L18.327 9.946V19H13.23V13.77H10.768V19H5.692ZM6.692 18H9.77V12.77H14.232V18H17.328V9.21L12 5.256L6.692 9.21V18ZM10.192 10.006H13.808C13.808 9.53667 13.627 9.15033 13.265 8.847C12.9037 8.54367 12.482 8.392 12 8.392C11.518 8.392 11.0963 8.543 10.735 8.845C10.373 9.147 10.192 9.53467 10.192 10.006ZM9.77 18V12.77H14.232H9.769L9.77 18Z" fill="#554B4B"/>
</svg>
