<svg width="24" height="18" viewBox="0 0 24 18" fill="none" xmlns="http://www.w3.org/2000/svg">
<path d="M23.25 13.125H22.875V10.125C22.8745 9.72733 22.7163 9.34611 22.4351 9.06491C22.1539 8.78372 21.7727 8.62552 21.375 8.625V2.25C21.3745 1.85234 21.2163 1.47111 20.9351 1.18992C20.6539 0.908723 20.2727 0.750521 19.875 0.75H4.125C3.72734 0.750521 3.34611 0.908723 3.06492 1.18992C2.78372 1.47111 2.62552 1.85234 2.625 2.25V8.625C2.22734 8.62552 1.84611 8.78372 1.56492 9.06491C1.28372 9.34611 1.12552 9.72733 1.125 10.125V13.125H0.75C0.650544 13.125 0.555161 13.1645 0.484835 13.2348C0.414509 13.3052 0.375 13.4005 0.375 13.5V15C0.375 15.0995 0.414509 15.1948 0.484835 15.2652C0.555161 15.3355 0.650544 15.375 0.75 15.375H1.125V16.875C1.125 16.9745 1.16451 17.0698 1.23483 17.1402C1.30516 17.2105 1.40054 17.25 1.5 17.25H2.625C2.71167 17.25 2.79567 17.22 2.86269 17.1651C2.9297 17.1101 2.97558 17.0336 2.9925 16.9486L3.3075 15.375H20.6925L21.0075 16.9486C21.0244 17.0336 21.0703 17.1101 21.1373 17.1651C21.2043 17.22 21.2883 17.25 21.375 17.25H22.5C22.5995 17.25 22.6948 17.2105 22.7652 17.1402C22.8355 17.0698 22.875 16.9745 22.875 16.875V15.375H23.25C23.3495 15.375 23.4448 15.3355 23.5152 15.2652C23.5855 15.1948 23.625 15.0995 23.625 15V13.5C23.625 13.4005 23.5855 13.3052 23.5152 13.2348C23.4448 13.1645 23.3495 13.125 23.25 13.125ZM3.375 2.25C3.37526 2.05117 3.45436 1.86055 3.59496 1.71996C3.73555 1.57936 3.92617 1.50026 4.125 1.5H19.875C20.0738 1.50026 20.2644 1.57936 20.405 1.71996C20.5456 1.86055 20.6247 2.05117 20.625 2.25V8.625H19.875V7.125C19.8745 6.72733 19.7163 6.34611 19.4351 6.06492C19.1539 5.78372 18.7727 5.62552 18.375 5.625H13.875C13.4773 5.62552 13.0961 5.78372 12.8149 6.06492C12.5337 6.34611 12.3755 6.72733 12.375 7.125V8.625H11.625V7.125C11.6245 6.72733 11.4663 6.34611 11.1851 6.06492C10.9039 5.78372 10.5227 5.62552 10.125 5.625H5.625C5.22733 5.62552 4.84611 5.78372 4.56492 6.06492C4.28372 6.34611 4.12552 6.72733 4.125 7.125V8.625H3.375V2.25ZM19.125 7.125V8.625H13.125V7.125C13.1253 6.92617 13.2044 6.73555 13.345 6.59496C13.4856 6.45436 13.6762 6.37526 13.875 6.375H18.375C18.5738 6.37526 18.7644 6.45436 18.905 6.59496C19.0456 6.73555 19.1247 6.92617 19.125 7.125ZM10.875 7.125V8.625H4.875V7.125C4.87526 6.92617 4.95436 6.73555 5.09496 6.59496C5.23555 6.45436 5.42617 6.37526 5.625 6.375H10.125C10.3238 6.37526 10.5144 6.45436 10.655 6.59496C10.7956 6.73555 10.8747 6.92617 10.875 7.125ZM1.875 10.125C1.87526 9.92617 1.95436 9.73555 2.09496 9.59496C2.23555 9.45436 2.42617 9.37526 2.625 9.375H21.375C21.5738 9.37526 21.7644 9.45436 21.905 9.59496C22.0456 9.73555 22.1247 9.92617 22.125 10.125V13.125H1.875V10.125ZM2.3175 16.5H1.875V15.375H2.5425L2.3175 16.5ZM22.125 16.5H21.6825L21.4575 15.375H22.125V16.5ZM22.875 14.625H1.125V13.875H22.875V14.625Z" fill="#554B4B"/>
</svg>
